<?xml version="1.0" encoding="UTF-8"?>
<!-- Generator: Adobe Illustrator 24.0.2, SVG Export Plug-In . SVG Version: 6.00 Build 0)  -->
<svg version="1.1" id="Finales" xmlns="http://www.w3.org/2000/svg" xmlns:xlink="http://www.w3.org/1999/xlink" x="0px" y="0px" viewBox="0 0 527 118.9" style="enable-background:new 0 0 527 118.9;" xml:space="preserve"><script xmlns="" type="text/javascript"/><script xmlns=""/>
<style type="text/css">
	.st0{fill:#B9F000;}
	.st1{fill:#182129;}
	.st2{fill:#1D8AED;}
</style>
<g>
	<g>
		<path class="st0" d="M394.7,111.1V18.5h17.4v7.8h-9.5v76.8h9.5v7.8H394.7z"/>
		<path class="st1" d="M441.1,94.4c-4.7,0-8.9-1-12.5-2.9c-3.6-1.9-6.4-4.6-8.5-8.1c-2-3.5-3-7.6-3-12.3V33.1l8.8,0v37.5    c0,2.6,0.4,4.8,1.3,6.8c0.9,1.9,2,3.6,3.5,4.9c1.4,1.3,3.1,2.3,4.9,3s3.6,1,5.5,1c1.9,0,3.7-0.3,5.5-1c1.8-0.7,3.4-1.7,4.9-3    c1.4-1.3,2.6-2.9,3.4-4.9c0.8-1.9,1.3-4.2,1.3-6.7V33.1h8.8v38c0,4.7-1,8.8-3,12.3c-2,3.5-4.8,6.2-8.5,8.2    C450,93.5,445.8,94.4,441.1,94.4z"/>
		<path class="st1" d="M480.2,93.2V33.1h8.7v60.1H480.2z"/>
		<path class="st0" d="M495.5,111.1v-7.8h9.5V26.4h-9.5v-7.8h17.4v92.5H495.5z"/>
	</g>
	<g>
		<g>
			<g>
				<g>
					<g>
						<path class="st2" d="M81.6,9.4v19.5c0,6.3-5.1,11.4-11.4,11.4l-0.2,0v0c-3.2,0-6,0-6,0c-0.5,0-1.1-0.1-1.7,0        c-3.6,0.4-6.7,2-9.3,4.9c-0.1,0.1-0.1,0.2-0.2,0.2c-2.1,2.7-3.2,6.2-3.2,10v0.2c0,2.4,0.5,4.7,1.4,6.8        c0.9,2.1,0.4,4.5-1.3,5.9c-1.7,1.4-3.7,3.1-5.1,4.2c-3.9-4.5-6.3-10.3-6.3-16.8v-0.2c0-13.9,11.1-25.5,26.3-25.5        c0.9,0,4,0,5.5,0V7.3c-1.2-0.1-2.5-0.1-3.7-0.1c-28.9,0-52.3,23.4-52.3,52.3c0,23.6,15.6,43.5,37.1,50V90.1        c0-6.4,5.2-11.6,11.6-11.6l0,0v0c3.2,0,6,0,6,0c0.5,0,1.1,0.1,1.7,0c3.6-0.4,6.7-2,9.3-4.9c0.1-0.1,0.1-0.2,0.2-0.2        c2.1-2.7,3.2-6.2,3.2-10v-0.2c0-1.9-0.8-4.4-1.6-6.5c-0.9-2.3-0.2-4.9,1.7-6.5c1.6-1.4,3.3-2.7,4.9-4        c3.9,4.5,6.3,10.3,6.3,16.8v0.2c0,13.9-11.1,25.5-26.3,25.5c-0.9,0-4,0-5.5,0v22.8c1.2,0.1,2.5,0.1,3.7,0.1        c28.9,0,52.3-23.4,52.3-52.3C118.7,35.9,103.1,16,81.6,9.4z"/>
						<g>
							<g>
								<path class="st1" d="M339.9,53.5v41.2l0,0c6.6,0,12-5.4,12-12V41.5l0,0C345.3,41.5,339.9,46.9,339.9,53.5z"/>
								<path class="st1" d="M318.2,36.2L318.2,36.2l40.1,0c6.7,0,12.1-5.4,12.1-12.1v0h-40.1C323.6,24.1,318.2,29.5,318.2,36.2z"/>
							</g>
							<path class="st1" d="M176,24.3c-1.4,1.1-3.3,2.7-5.1,4.2c-2,1.7-2.6,4.5-1.6,6.9c0.9,2.1,1.4,4.5,1.4,6.9v0.2         c0,4-1.2,7.8-3.5,10.7c0,0-0.1,0.1-0.1,0.1c-2.8,3.1-6.1,4.9-10,5.3c-0.6,0.1-1.2,0-1.8,0c0,0-3,0-6.4,0l0,0l-0.1,0         c-6.8,0-12.3,5.5-12.3,12.3v23.9h0c6.8,0,12.2-5.5,12.2-12.2v-13c1.5,0,4.8,0,5.8,0c16.1,0,28-12.4,28-27.2v-0.2         C182.7,35.3,180.2,29,176,24.3z"/>
							<g>
								<path class="st1" d="M275,24.3v60.4c0,5.5-4.5,10-10.1,10h-1.8V34.3c0-5.5,4.5-10.1,10-10.1H275z"/>
							</g>
							<g>
								<path class="st1" d="M256.9,59.6c0.1,4.8-0.8,9.3-2.7,13.6c-1.8,4.3-4.3,8.1-7.5,11.3c-1.8,1.8-3.8,3.4-5.9,4.8          c-1.6,1.1-3.4,2.1-5.3,2.9c-1.2,0.5-2.4,1-3.6,1.3c-1.3,0.4-2.6,0.7-4,1c-0.1,0-0.1,0-0.1-0.1l-0.1-6.9v-0.2          c0-2.4,1.3-4.5,3.3-5.6c0.2-0.1,0.5-0.3,0.8-0.4c2.5-1.2,4.8-2.8,6.7-4.8c2.2-2.2,3.9-4.7,5.1-7.6c1.2-2.9,1.8-6,1.8-9.2v0          c0-3.2-0.6-6.3-1.8-9.2c-1.2-2.9-2.9-5.4-5.1-7.6c-2-2-4.2-3.5-6.7-4.8c-0.3-0.1-0.5-0.3-0.8-0.4c-1.9-1.2-3.2-3.2-3.3-5.6          v-0.2L228,25c0,0,0-0.1,0.1-0.1c1.3,0.3,2.7,0.6,4,1c1.2,0.4,2.4,0.8,3.6,1.3c1.8,0.8,3.6,1.8,5.3,2.9          c2.1,1.4,4.1,3,5.9,4.8c3.2,3.2,5.7,7,7.5,11.3c1.8,4.3,2.7,8.8,2.7,13.6V59.6z"/>
								<path class="st1" d="M186.7,59.6c-0.1,4.8,0.8,9.3,2.7,13.6c1.8,4.3,4.3,8.1,7.5,11.3c1.8,1.8,3.8,3.4,5.9,4.8          c1.6,1.1,3.4,2.1,5.3,2.9c1.2,0.5,2.4,1,3.6,1.3c1.3,0.4,2.6,0.7,4,1c0.1,0,0.1,0,0.1-0.1l0.1-6.9v-0.2          c0-2.4-1.3-4.5-3.3-5.6c-0.2-0.1-0.5-0.3-0.8-0.4c-2.5-1.2-4.8-2.8-6.7-4.8c-2.2-2.2-3.9-4.7-5.1-7.6          c-1.2-2.9-1.8-6-1.8-9.2v0c0-3.2,0.6-6.3,1.8-9.2c1.2-2.9,2.9-5.4,5.1-7.6c2-2,4.2-3.5,6.7-4.8c0.3-0.1,0.5-0.3,0.8-0.4          c1.9-1.2,3.2-3.2,3.3-5.6v-0.2l-0.1-6.9c0,0,0-0.1-0.1-0.1c-1.3,0.3-2.7,0.6-4,1c-1.2,0.4-2.4,0.8-3.6,1.3          c-1.8,0.8-3.6,1.8-5.3,2.9c-2.1,1.4-4.1,3-5.9,4.8c-3.2,3.2-5.7,7-7.5,11.3c-1.8,4.3-2.7,8.8-2.7,13.6V59.6z"/>
							</g>
							<path class="st1" d="M283.2,62.3c-1-1.7-1.1-3.9-0.3-5.7L298.5,30c1.6-3.5,5.1-5.7,8.9-5.7h6.9l-0.7,1.7L295,59.5l24.3,35.2         h-8.5c-3.5,0-6.7-1.9-8.5-4.9L283.2,62.3z"/>
						</g>
					</g>
				</g>
			</g>
		</g>
	</g>
</g>
</svg>